:SAMPLES-PER-SECOND 30
:FULLY-SPECIFIED
:DEGREES
371
root  54.8316 33.8499 2.3131 -161.454 -71.8291 179.841
RightUpLeg  -50.3006 -15.3539 0.773652
RightLeg  63.8271 -5.76313 -13.1816
RightFoot  -26.3687 1.23007 10.5546
RightToes  2.32829e-010 0 -3.6325e-017
Spine  58.65 -4.30111 8.30065
Spine1  -3.44802 1.05285 -6.64424
HEad  -54.1927 2.69654 -8.12766
LeftShoulder1  12.6587 -22.3954 -42.377
LeftArm  -41.2765 -34.5099 -30.5957
LeftForeArm  -10.2966 -70.822 -38.1728
LeftHand  -0.244104 0.0205437 5.32207
RightShoulder  8.35789 16.4152 35.9349
RightArm  -39.0678 36.379 17.2699
RightForeArm  -39.3844 78.3698 95.4234
RightHand  1.01602 -11.3055 -20.1494
LeftUpLeg  -76.8143 33.0861 -31.7432
LeftLeg  32.1565 -3.82351 -2.23721
LeftFoot  10.7543 -2.3078 11.4439
LeftToes  1.42787e-010 7.94111e-011 2.6399e-011
372
root  55.5877 33.6491 2.45724 -161.934 -70.5953 -178.746
RightUpLeg  -54.2674 -14.5322 2.39904
RightLeg  65.5047 -5.84806 -14.4051
RightFoot  -23.9541 0.635461 7.25775
RightToes  2.32829e-010 0 -3.6325e-017
Spine  60.0099 -4.85952 8.0969
Spine1  -1.32936 0.408045 -5.77375
HEad  -53.2976 3.2129 -8.7043
LeftShoulder1  12.3512 -22.0309 -41.9146
LeftArm  -40.3447 -33.7866 -31.4265
LeftForeArm  -4.20177 -73.8211 -47.6791
LeftHand  -0.244104 0.0205437 5.32207
RightShoulder  8.44977 16.1844 36.8724
RightArm  -38.9329 35.0797 16.1882
RightForeArm  -24.0411 77.746 106.898
RightHand  1.11116 -13.1857 -16.8619
LeftUpLeg  -80.081 34.0197 -34.7278
LeftLeg  30.8138 -5.24024 -3.02199
LeftFoot  12.1453 -2.29796 10.6624
LeftToes  1.42787e-010 7.94111e-011 2.6399e-011
373
root  56.1835 33.5534 2.59412 -162.87 -69.7704 -177.148
RightUpLeg  -55.978 -13.989 3.58197
RightLeg  65.0618 -5.69555 -13.7913
RightFoot  -23.1226 0.515622 6.52352
RightToes  2.32829e-010 0 -3.6325e-017
Spine  61.2024 -5.20622 7.82806
Spine1  0.944958 -0.320654 -3.97742
HEad  -52.7073 3.79459 -9.44739
LeftShoulder1  12.428 -21.7348 -42.73
LeftArm  -39.8378 -33.4474 -31.7893
LeftForeArm  0.204578 -72.0255 -40.0373
LeftHand  -0.244104 0.0205437 5.32207
RightShoulder  8.34305 15.7948 37.1797
RightArm  -38.9974 33.3785 15.7769
RightForeArm  -15.3796 77.1364 113.368
RightHand  1.0431 -15.0478 -13.7517
LeftUpLeg  -82.5812 34.8272 -37.3218
LeftLeg  29.39 -6.85768 -3.82165
LeftFoot  13.3414 -2.26968 9.96939
LeftToes  1.42787e-010 7.94111e-011 2.6399e-011
374
root  56.6499 33.5224 2.73626 -163.026 -68.7043 -176.032
RightUpLeg  -57.4313 -13.3805 4.44662
RightLeg  63.9375 -5.49323 -12.6601
RightFoot  -23.372 0.499876 6.2423
RightToes  2.32829e-010 0 -3.6325e-017
Spine  61.9023 -5.39042 7.47084
Spine1  2.65858 -0.992969 -2.56446
HEad  -52.4782 4.23187 -10.2539
LeftShoulder1  12.736 -21.5424 -44.2173
LeftArm  -38.0926 -32.8759 -32.2106
LeftForeArm  3.16616 -73.007 -42.9751
LeftHand  -0.244104 0.0205437 5.32207
RightShoulder  8.22492 15.4643 37.3109
RightArm  -38.3801 31.1068 16.1352
RightForeArm  -3.36183 77.1619 107.288
RightHand  0.675064 -12.4487 -4.07006
LeftUpLeg  -85.6022 35.7163 -41.077
LeftLeg  27.7959 -8.7973 -4.66633
LeftFoot  14.2652 -2.2589 9.52923
LeftToes  1.42787e-010 7.94111e-011 2.6399e-011
375
root  57.0454 33.4939 2.89706 -162.437 -67.2921 -175.736
RightUpLeg  -59.4836 -12.8637 5.15022
RightLeg  63.7311 -5.29649 -12.13
RightFoot  -22.5393 0.332213 4.92871
RightToes  2.32829e-010 0 -3.6325e-017
Spine  62.5808 -5.87378 7.07161
Spine1  3.39689 -1.66976 -2.5963
HEad  -52.2992 4.73971 -10.6796
LeftShoulder1  12.5898 -21.3528 -44.0368
LeftArm  -36.1002 -31.5379 -33.8149
LeftForeArm  6.13256 -74.5594 -50.2709
LeftHand  -0.244104 0.0205437 5.32207
RightShoulder  8.26585 15.2879 37.9159
RightArm  -35.6431 29.0623 16.7176
RightForeArm  17.9963 77.2131 71.7891
RightHand  0.900162 0.607138 21.1366
LeftUpLeg  -88.9636 36.6547 -45.5433
LeftLeg  26.5059 -10.6332 -5.39254
LeftFoot  14.6867 -2.09901 8.67092
LeftToes  1.42787e-010 7.94111e-011 2.6399e-011
376
root  57.3876 33.4517 3.05932 -162.265 -65.8692 -175.596
RightUpLeg  -60.9364 -12.6892 5.77372
RightLeg  63.7445 -4.92049 -11.3461
RightFoot  -21.1922 0.171085 3.66272
RightToes  2.32829e-010 0 -3.6325e-017
Spine  63.3075 -6.01168 6.60964
Spine1  3.94212 -2.11108 -2.15815
HEad  -51.9763 5.13946 -11.2983
LeftShoulder1  12.505 -21.2463 -43.9239
LeftArm  -33.4298 -30.4318 -35.826
LeftForeArm  9.1287 -76.7928 -67.1879
LeftHand  -0.244104 0.0205437 5.32207
RightShoulder  8.23296 15.0619 38.264
RightArm  -36.2402 27.0093 15.8345
RightForeArm  17.8734 77.429 77.4306
RightHand  0.521786 -1.46729 15.9529
LeftUpLeg  -91.7605 37.668 -48.9542
LeftLeg  26.0547 -11.8878 -5.93682
LeftFoot  14.6096 -1.6733 6.85958
LeftToes  1.42787e-010 7.94111e-011 2.6399e-011
377
root  57.6647 33.4195 3.20935 -162.869 -64.4996 -175.047
RightUpLeg  -61.3321 -12.6215 6.38345
RightLeg  63.1275 -4.36139 -9.87722
RightFoot  -20.6523 0.106805 3.03494
RightToes  2.32829e-010 0 -3.6325e-017
Spine  63.9245 -6.01535 6.41591
Spine1  4.48581 -2.28825 -1.69899
HEad  -51.5307 5.45803 -11.7681
LeftShoulder1  12.6417 -21.3449 -44.2428
LeftArm  -32.2651 -29.5828 -37.2053
LeftForeArm  9.49342 -76.1178 -59.8134
LeftHand  -0.244104 0.0205437 5.32207
RightShoulder  8.19721 14.7617 38.7778
RightArm  -37.119 25.3032 14.5417
RightForeArm  21.8356 77.6032 82.9035
RightHand  0.681907 -0.0165485 14.6595
LeftUpLeg  -93.9873 38.7759 -51.0708
LeftLeg  26.1854 -12.6514 -6.36513
LeftFoot  14.4077 -1.19215 4.82582
LeftToes  1.42787e-010 7.94111e-011 2.6399e-011
378
root  57.8825 33.4124 3.36115 -163.49 -63.0417 -174.409
RightUpLeg  -61.6201 -12.3428 6.95177
RightLeg  62.4065 -3.88898 -8.60491
RightFoot  -20.3558 0.0377049 2.21865
RightToes  2.32829e-010 0 -3.6325e-017
Spine  64.3578 -6.13049 6.37803
Spine1  4.66137 -2.40175 -1.72892
HEad  -51.0844 5.7853 -12.2107
LeftShoulder1  12.8062 -21.4068 -44.7315
LeftArm  -31.3421 -28.7987 -38.182
LeftForeArm  13.0648 -76.2628 -60.2711
LeftHand  -0.244104 0.0205437 5.32207
RightShoulder  8.18905 14.6055 39.1058
RightArm  -37.8471 23.8447 13.9139
RightForeArm  26.6791 77.6966 86.6723
RightHand  0.854325 0.693629 16.2529
LeftUpLeg  -96.1334 39.7427 -53.1191
LeftLeg  26.1203 -13.3046 -6.68283
LeftFoot  14.4306 -0.961349 3.8127
LeftToes  1.42787e-010 7.94111e-011 2.6399e-011
